Tans Sans 100921-Regular.ufo
<glyph name="exclam" format="2">
	<advance width="500"/>
	<unicode hex="0021"/>
	<guideline x="-151" y="696" angle="0"/>
	<outline>
		<contour>
			<point x="188" y="0" type="line"/>
			<point x="317" y="0" type="line"/>
			<point x="317" y="129" type="line"/>
			<point x="188" y="129" type="line"/>
		</contour>
		<contour>
			<point x="191" y="696" type="line"/>
			<point x="191" y="216" type="line"/>
			<point x="317" y="216" type="line"/>
			<point x="317" y="696" type="line"/>
		</contour>
	</outline>
</glyph>
<glyph name="quotedbl" format="2">
	<advance width="420"/>
	<unicode hex="0022"/>
	<outline>
		<contour>
			<point x="54" y="452" type="line"/>
			<point x="166" y="451" type="line"/>
			<point x="170" y="700" type="line"/>
			<point x="50" y="700" type="line"/>
		</contour>
		<contour>
			<point x="254" y="452" type="line"/>
			<point x="366" y="451" type="line"/>
			<point x="370" y="700" type="line"/>
			<point x="250" y="700" type="line"/>
		</contour>
	</outline>
</glyph>
<glyph name="quotesingle" format="2">
	<advance width="220"/>
	<unicode hex="0027"/>
	<outline>
		<contour>
			<point x="54" y="452" type="line"/>
			<point x="166" y="451" type="line"/>
			<point x="170" y="700" type="line"/>
			<point x="50" y="700" type="line"/>
		</contour>
	</outline>
</glyph>
<glyph name="parenleft" format="2">
	<advance width="363"/>
	<unicode hex="0028"/>
	<outline>
		<contour>
			<point x="313" y="-1" type="line"/>
			<point x="231" y="-1" type="line"/>
			<point x="231" y="616" type="line"/>
			<point x="313" y="616" type="line"/>
			<point x="313" y="762" type="line"/>
			<point x="304" y="762" type="line" smooth="yes"/>
			<point x="165" y="762"/>
			<point x="100" y="679"/>
			<point x="100" y="532" type="curve" smooth="yes"/>
			<point x="100" y="84" type="line"/>
			<point x="100" y="-70"/>
			<point x="147" y="-147"/>
			<point x="303" y="-147" type="curve" smooth="yes"/>
			<point x="313" y="-147" type="line"/>
		</contour>
	</outline>
</glyph>
<glyph name="parenright" format="2">
	<advance width="363"/>
	<unicode hex="0029"/>
	<guideline x="276" y="144" angle="90"/>
	<outline>
		<contour>
			<point x="100" y="-1" type="line"/>
			<point x="100" y="-147" type="line"/>
			<point x="110" y="-147" type="line" smooth="yes"/>
			<point x="266" y="-147"/>
			<point x="313" y="-70"/>
			<point x="313" y="84" type="curve"/>
			<point x="313" y="538" type="line" smooth="yes"/>
			<point x="313" y="685"/>
			<point x="248" y="768"/>
			<point x="109" y="768" type="curve" smooth="yes"/>
			<point x="100" y="768" type="line"/>
			<point x="100" y="622" type="line"/>
			<point x="182" y="622" type="line"/>
			<point x="182" y="-1" type="line"/>
		</contour>
	</outline>
</glyph>
<glyph name="asterisk" format="2">
	<advance width="443"/>
	<unicode hex="002A"/>
	<outline>
		<contour>
			<point x="50" y="524" type="line"/>
			<point x="110" y="412" type="line"/>
			<point x="191" y="499" type="line"/>
			<point x="198" y="495" type="line"/>
			<point x="161" y="384" type="line"/>
			<point x="287" y="384" type="line"/>
			<point x="251" y="495" type="line"/>
			<point x="258" y="499" type="line"/>
			<point x="328" y="408" type="line"/>
			<point x="392" y="517" type="line"/>
			<point x="280" y="541" type="line"/>
			<point x="280" y="549" type="line"/>
			<point x="393" y="569" type="line"/>
			<point x="331" y="678" type="line"/>
			<point x="259" y="595" type="line"/>
			<point x="251" y="598" type="line"/>
			<point x="285" y="705" type="line"/>
			<point x="159" y="705" type="line"/>
			<point x="198" y="598" type="line"/>
			<point x="189" y="595" type="line"/>
			<point x="115" y="682" type="line"/>
			<point x="52" y="572" type="line"/>
			<point x="168" y="549" type="line"/>
			<point x="168" y="541" type="line"/>
		</contour>
	</outline>
</glyph>
<glyph name="comma" format="2">
	<advance width="257"/>
	<unicode hex="002C"/>
	<outline>
		<contour>
			<point x="73" y="36" type="line"/>
			<point x="202" y="36" type="line"/>
			<point x="202" y="129" type="line"/>
			<point x="73" y="129" type="line"/>
		</contour>
		<contour>
			<point x="104" y="-139" type="line"/>
			<point x="172" y="-105"/>
			<point x="202" y="-52"/>
			<point x="202" y="36" type="curve"/>
			<point x="73" y="36" type="line"/>
			<point x="73" y="-10"/>
			<point x="64" y="-53"/>
			<point x="40" y="-89" type="curve"/>
		</contour>
	</outline>
</glyph>
<glyph name="hyphen" format="2">
	<advance width="500"/>
	<unicode hex="002D"/>
	<guideline x="412" y="49" angle="90"/>
	<outline>
		<contour>
			<point x="100" y="191" type="line"/>
			<point x="412" y="191" type="line"/>
			<point x="412" y="320" type="line"/>
			<point x="100" y="320" type="line"/>
		</contour>
		<contour>
			<point x="100" y="191" type="line"/>
			<point x="229" y="191" type="line"/>
			<point x="229" y="320" type="line"/>
			<point x="100" y="320" type="line"/>
		</contour>
	</outline>
</glyph>
<glyph name="zero" format="2">
	<advance width="830"/>
	<unicode hex="0030"/>
	<outline>
		<contour>
			<point x="478" y="127" type="curve" smooth="yes"/>
			<point x="231" y="127" type="line"/>
			<point x="231" y="508" type="line" smooth="yes"/>
			<point x="231" y="607"/>
			<point x="273" y="629"/>
			<point x="352" y="629" type="curve" smooth="yes"/>
			<point x="599" y="629" type="line"/>
			<point x="599" y="248" type="line" smooth="yes"/>
			<point x="599" y="149"/>
			<point x="557" y="127"/>
		</contour>
		<contour>
			<point x="730" y="230" type="curve" smooth="yes"/>
			<point x="730" y="525" type="line"/>
			<point x="730" y="679"/>
			<point x="683" y="756"/>
			<point x="527" y="756" type="curve" smooth="yes"/>
			<point x="304" y="756" type="line" smooth="yes"/>
			<point x="175" y="756"/>
			<point x="100" y="663"/>
			<point x="100" y="526" type="curve" smooth="yes"/>
			<point x="100" y="230" type="line" smooth="yes"/>
			<point x="100" y="76"/>
			<point x="148" y="0"/>
			<point x="304" y="0" type="curve" smooth="yes"/>
			<point x="526" y="0" type="line" smooth="yes"/>
			<point x="665" y="0"/>
			<point x="730" y="83"/>
		</contour>
		<contour>
			<point x="599" y="629" type="line"/>
			<point x="231" y="286" type="line"/>
			<point x="231" y="127" type="line"/>
			<point x="599" y="470" type="line"/>
		</contour>
	</outline>
</glyph>
<glyph name="semicolon" format="2">
	<advance width="258"/>
	<unicode hex="003B"/>
	<outline>
		<contour>
			<point x="64" y="556" type="line"/>
			<point x="64" y="412" type="line"/>
			<point x="208" y="412" type="line"/>
			<point x="208" y="556" type="line"/>
		</contour>
		<contour>
			<point x="73" y="36" type="line"/>
			<point x="202" y="36" type="line"/>
			<point x="202" y="129" type="line"/>
			<point x="73" y="129" type="line"/>
		</contour>
		<contour>
			<point x="104" y="-139" type="line"/>
			<point x="172" y="-105"/>
			<point x="202" y="-52"/>
			<point x="202" y="36" type="curve"/>
			<point x="73" y="36" type="line"/>
			<point x="73" y="-10"/>
			<point x="64" y="-53"/>
			<point x="40" y="-89" type="curve"/>
		</contour>
	</outline>
</glyph>
<glyph name="question" format="2">
	<advance width="578"/>
	<unicode hex="003F"/>
	<outline>
		<contour>
			<point x="257" y="457" type="line" smooth="yes"/>
			<point x="187" y="457"/>
			<point x="151" y="428"/>
			<point x="151" y="361" type="curve" smooth="yes"/>
			<point x="151" y="329"/>
			<point x="151" y="227"/>
			<point x="151" y="204" type="curve"/>
			<point x="273" y="204" type="line"/>
			<point x="273" y="244"/>
			<point x="273" y="271"/>
			<point x="273" y="296" type="curve" smooth="yes"/>
			<point x="273" y="321"/>
			<point x="285" y="332"/>
			<point x="313" y="332" type="curve" smooth="yes"/>
			<point x="419" y="333" type="line" smooth="yes"/>
			<point x="495" y="334"/>
			<point x="528" y="373"/>
			<point x="528" y="443" type="curve" smooth="yes"/>
			<point x="528" y="595" type="line" smooth="yes"/>
			<point x="528" y="671"/>
			<point x="495" y="704"/>
			<point x="419" y="704" type="curve" smooth="yes"/>
			<point x="50" y="704" type="line"/>
			<point x="50" y="579" type="line"/>
			<point x="364" y="579" type="line" smooth="yes"/>
			<point x="391" y="579"/>
			<point x="403" y="561"/>
			<point x="403" y="541" type="curve" smooth="yes"/>
			<point x="403" y="521"/>
			<point x="403" y="508"/>
			<point x="403" y="495" type="curve" smooth="yes"/>
			<point x="403" y="470"/>
			<point x="391" y="457"/>
			<point x="364" y="457" type="curve" smooth="yes"/>
		</contour>
		<contour>
			<point x="149" y="0" type="line"/>
			<point x="278" y="0" type="line"/>
			<point x="278" y="129" type="line"/>
			<point x="149" y="129" type="line"/>
		</contour>
	</outline>
</glyph>
<glyph name="at" format="2">
	<advance width="938"/>
	<unicode hex="0040"/>
	<guideline x="1021" y="495" angle="0"/>
	<outline>
		<contour>
			<point x="357" y="328" type="curve" smooth="yes"/>
			<point x="357" y="388"/>
			<point x="376" y="413"/>
			<point x="432" y="413" type="curve"/>
			<point x="560" y="413" type="line"/>
			<point x="589" y="530" type="line"/>
			<point x="589" y="530"/>
			<point x="538" y="530"/>
			<point x="409" y="530" type="curve" smooth="yes"/>
			<point x="279" y="530"/>
			<point x="241" y="455"/>
			<point x="241" y="348" type="curve" smooth="yes"/>
			<point x="241" y="259" type="line" smooth="yes"/>
			<point x="241" y="134"/>
			<point x="295" y="78"/>
			<point x="399" y="80" type="curve"/>
			<point x="429" y="80" type="line"/>
			<point x="525" y="80"/>
			<point x="533" y="132"/>
			<point x="552" y="207" type="curve"/>
			<point x="565" y="207" type="line"/>
			<point x="553" y="306" type="line"/>
			<point x="553" y="216"/>
			<point x="542" y="204"/>
			<point x="467" y="204" type="curve" smooth="yes"/>
			<point x="432" y="204" type="line" smooth="yes"/>
			<point x="376" y="204"/>
			<point x="357" y="223"/>
			<point x="357" y="284" type="curve" smooth="yes"/>
			<point x="357" y="305"/>
			<point x="357" y="327"/>
		</contour>
		<contour>
			<point x="50" y="122" type="line" smooth="yes"/>
			<point x="50" y="-37"/>
			<point x="113" y="-108"/>
			<point x="243" y="-108" type="curve" smooth="yes"/>
			<point x="509" y="-108" type="line"/>
			<point x="509" y="19" type="line"/>
			<point x="288" y="19" type="line" smooth="yes"/>
			<point x="215" y="19"/>
			<point x="178" y="41"/>
			<point x="178" y="141" type="curve" smooth="yes"/>
			<point x="178" y="476" type="line" smooth="yes"/>
			<point x="178" y="576"/>
			<point x="216" y="598"/>
			<point x="289" y="598" type="curve" smooth="yes"/>
			<point x="650" y="598" type="line" smooth="yes"/>
			<point x="723" y="598"/>
			<point x="760" y="576"/>
			<point x="760" y="476" type="curve" smooth="yes"/>
			<point x="760" y="291" type="line" smooth="yes"/>
			<point x="760" y="216"/>
			<point x="738" y="208"/>
			<point x="693" y="208" type="curve" smooth="yes"/>
			<point x="671" y="208" type="line"/>
			<point x="671" y="531" type="line"/>
			<point x="553" y="530" type="line"/>
			<point x="553" y="284" type="line"/>
			<point x="565" y="206" type="line" smooth="yes"/>
			<point x="577" y="131"/>
			<point x="610" y="81"/>
			<point x="674" y="81" type="curve" smooth="yes"/>
			<point x="738" y="81" type="line" smooth="yes"/>
			<point x="834" y="81"/>
			<point x="888" y="174"/>
			<point x="888" y="309" type="curve" smooth="yes"/>
			<point x="888" y="495" type="line" smooth="yes"/>
			<point x="888" y="614"/>
			<point x="825" y="725"/>
			<point x="695" y="725" type="curve" smooth="yes"/>
			<point x="243" y="725" type="line" smooth="yes"/>
			<point x="138" y="725"/>
			<point x="50" y="632"/>
			<point x="50" y="497" type="curve" smooth="yes"/>
		</contour>
	</outline>
</glyph>
<glyph name="B" format="2">
	<advance width="733"/>
	<unicode hex="0042"/>
	<guideline x="-287"/>
	<outline>
		<contour>
			<point x="496" y="405" type="curve"/>
			<point x="496" y="421" type="line"/>
			<point x="573" y="421"/>
			<point x="615" y="472"/>
			<point x="615" y="570" type="curve" smooth="yes"/>
			<point x="615" y="676"/>
			<point x="580" y="756"/>
			<point x="451" y="756" type="curve" smooth="yes"/>
			<point x="165" y="756" type="line"/>
			<point x="165" y="630" type="line"/>
			<point x="408" y="630" type="line"/>
			<point x="474" y="630"/>
			<point x="490" y="606"/>
			<point x="490" y="546" type="curve" smooth="yes"/>
			<point x="490" y="476"/>
			<point x="451" y="453"/>
			<point x="402" y="453" type="curve"/>
			<point x="134" y="453" type="line"/>
			<point x="134" y="326" type="line"/>
			<point x="413" y="326" type="line" smooth="yes"/>
			<point x="472" y="325"/>
			<point x="493" y="283"/>
			<point x="493" y="222" type="curve" smooth="yes"/>
			<point x="493" y="153"/>
			<point x="451" y="128"/>
			<point x="402" y="128" type="curve" smooth="yes"/>
			<point x="154" y="128" type="line"/>
			<point x="155" y="0" type="line"/>
			<point x="427" y="1" type="line" smooth="yes"/>
			<point x="574" y="2"/>
			<point x="622" y="66"/>
			<point x="622" y="196" type="curve" smooth="yes"/>
			<point x="622" y="356"/>
			<point x="584" y="405"/>
		</contour>
		<contour>
			<point x="213" y="0" type="line"/>
			<point x="213" y="756" type="line"/>
			<point x="83" y="756" type="line"/>
			<point x="83" y="0" type="line"/>
		</contour>
	</outline>
</glyph>
<glyph name="H" format="2">
	<advance width="866"/>
	<unicode hex="0048"/>
	<outline>
		<contour>
			<point x="253" y="756" type="line"/>
			<point x="123" y="756" type="line"/>
			<point x="123" y="0" type="line"/>
			<point x="253" y="0" type="line"/>
		</contour>
		<contour>
			<point x="743" y="756" type="line"/>
			<point x="613" y="756" type="line"/>
			<point x="613" y="0" type="line"/>
			<point x="743" y="0" type="line"/>
		</contour>
		<contour>
			<point x="209" y="448" type="line"/>
			<point x="209" y="321" type="line"/>
			<point x="652" y="321" type="line"/>
			<point x="652" y="448" type="line"/>
		</contour>
	</outline>
</glyph>
<glyph name="K" format="2">
	<advance width="739"/>
	<unicode hex="004B"/>
	<outline>
		<contour>
			<point x="123" y="0" type="line"/>
			<point x="253" y="0" type="line"/>
			<point x="253" y="324" type="line"/>
			<point x="344" y="324" type="line"/>
			<point x="576" y="-1" type="line"/>
			<point x="732" y="-1" type="line"/>
			<point x="428" y="429" type="line"/>
			<point x="426" y="352" type="line"/>
			<point x="702" y="756" type="line"/>
			<point x="554" y="756" type="line"/>
			<point x="342" y="448" type="line"/>
			<point x="253" y="448" type="line"/>
			<point x="253" y="756" type="line"/>
			<point x="123" y="756" type="line"/>
		</contour>
	</outline>
</glyph>
<glyph name="M" format="2">
	<advance width="1061"/>
	<unicode hex="004D"/>
	<guideline x="327" y="630" angle="0"/>
	<outline>
		<contour>
			<point x="123" y="-1" type="line"/>
			<point x="237" y="-1" type="line"/>
			<point x="276" y="675" type="line"/>
			<point x="228" y="630" type="line"/>
			<point x="327" y="630" type="line"/>
			<point x="267" y="674" type="line"/>
			<point x="423" y="43" type="line"/>
			<point x="630" y="43" type="line"/>
			<point x="775" y="674" type="line"/>
			<point x="720" y="630" type="line"/>
			<point x="818" y="630" type="line"/>
			<point x="777" y="675" type="line"/>
			<point x="813" y="0" type="line"/>
			<point x="938" y="0" type="line"/>
			<point x="900" y="756" type="line"/>
			<point x="693" y="756" type="line"/>
			<point x="532" y="133" type="line"/>
			<point x="588" y="177" type="line"/>
			<point x="481" y="177" type="line"/>
			<point x="538" y="134" type="line"/>
			<point x="366" y="756" type="line"/>
			<point x="160" y="756" type="line"/>
		</contour>
	</outline>
</glyph>
<glyph name="N" format="2">
	<advance width="861"/>
	<unicode hex="004E"/>
	<anchor x="431" y="756" name="top"/>
	<anchor x="417" y="0" name="bottom"/>
	<outline>
		<contour>
			<point x="123" y="0" type="line"/>
			<point x="243" y="0" type="line"/>
			<point x="245" y="678" type="line"/>
			<point x="226" y="674" type="line"/>
			<point x="537" y="0" type="line"/>
			<point x="738" y="0" type="line"/>
			<point x="738" y="756" type="line"/>
			<point x="617" y="756" type="line"/>
			<point x="617" y="79" type="line"/>
			<point x="636" y="83" type="line"/>
			<point x="326" y="756" type="line"/>
			<point x="123" y="756" type="line"/>
		</contour>
	</outline>
</glyph>
<glyph name="O" format="2">
	<advance width="884"/>
	<unicode hex="004F"/>
	<anchor x="442" y="0" name="bottom"/>
	<anchor x="784" y="10" name="ogonek"/>
	<anchor x="442" y="756" name="top"/>
	<anchor x="849" y="756" name="topright"/>
	<anchor x="35" y="756" name="topleft"/>
	<anchor x="442" y="378" name="center"/>
	<outline>
		<contour>
			<point x="784" y="230" type="curve" smooth="yes"/>
			<point x="784" y="525" type="line"/>
			<point x="784" y="684"/>
			<point x="717" y="756"/>
			<point x="581" y="756" type="curve" smooth="yes"/>
			<point x="304" y="756" type="line" smooth="yes"/>
			<point x="195" y="756"/>
			<point x="100" y="663"/>
			<point x="100" y="526" type="curve" smooth="yes"/>
			<point x="100" y="230" type="line" smooth="yes"/>
			<point x="100" y="73"/>
			<point x="165" y="0"/>
			<point x="304" y="0" type="curve" smooth="yes"/>
			<point x="580" y="0" type="line" smooth="yes"/>
			<point x="699" y="0"/>
			<point x="784" y="83"/>
		</contour>
		<contour>
			<point x="532" y="127" type="curve" smooth="yes"/>
			<point x="352" y="127" type="line"/>
			<point x="278" y="127"/>
			<point x="236" y="149"/>
			<point x="236" y="248" type="curve" smooth="yes"/>
			<point x="236" y="508" type="line" smooth="yes"/>
			<point x="236" y="607"/>
			<point x="278" y="629"/>
			<point x="352" y="629" type="curve" smooth="yes"/>
			<point x="532" y="629" type="line" smooth="yes"/>
			<point x="606" y="629"/>
			<point x="648" y="607"/>
			<point x="648" y="508" type="curve" smooth="yes"/>
			<point x="648" y="248" type="line" smooth="yes"/>
			<point x="648" y="149"/>
			<point x="606" y="127"/>
		</contour>
	</outline>
</glyph>
<glyph name="P" format="2">
	<advance width="694"/>
	<unicode hex="0050"/>
	<outline>
		<contour>
			<point x="212" y="0" type="line"/>
			<point x="212" y="629" type="line"/>
			<point x="212" y="629"/>
			<point x="317" y="629"/>
			<point x="405" y="629" type="curve" smooth="yes"/>
			<point x="470" y="630"/>
			<point x="493" y="607"/>
			<point x="493" y="534" type="curve" smooth="yes"/>
			<point x="493" y="460"/>
			<point x="455" y="437"/>
			<point x="376" y="437" type="curve"/>
			<point x="198" y="437" type="line"/>
			<point x="198" y="311" type="line"/>
			<point x="431" y="311" type="line" smooth="yes"/>
			<point x="528" y="311"/>
			<point x="618" y="361"/>
			<point x="618" y="473" type="curve" smooth="yes"/>
			<point x="619" y="594" type="line" smooth="yes"/>
			<point x="619" y="693"/>
			<point x="534" y="756"/>
			<point x="431" y="756" type="curve" smooth="yes"/>
			<point x="81" y="756" type="line"/>
			<point x="81" y="0" type="line"/>
		</contour>
	</outline>
</glyph>
<glyph name="R" format="2">
	<advance width="667"/>
	<unicode hex="0052"/>
	<outline>
		<contour>
			<point x="81" y="0" type="line"/>
			<point x="212" y="0" type="line"/>
			<point x="212" y="756" type="line"/>
			<point x="81" y="756" type="line"/>
		</contour>
		<contour>
			<point x="493" y="329" type="curve"/>
			<point x="504" y="329" type="line"/>
			<point x="565" y="329"/>
			<point x="620" y="408"/>
			<point x="620" y="479" type="curve" smooth="yes"/>
			<point x="620" y="601" type="line" smooth="yes"/>
			<point x="620" y="694"/>
			<point x="542" y="756"/>
			<point x="433" y="756" type="curve" smooth="yes"/>
			<point x="166" y="756" type="line"/>
			<point x="166" y="629" type="line"/>
			<point x="166" y="629"/>
			<point x="311" y="629"/>
			<point x="405" y="629" type="curve" smooth="yes"/>
			<point x="480" y="630"/>
			<point x="494" y="592"/>
			<point x="494" y="541" type="curve" smooth="yes"/>
			<point x="494" y="456"/>
			<point x="455" y="437"/>
			<point x="376" y="437" type="curve"/>
			<point x="199" y="437" type="line"/>
			<point x="198" y="310" type="line"/>
			<point x="354" y="310" type="line"/>
			<point x="519" y="0" type="line"/>
			<point x="519" y="0"/>
			<point x="674" y="-1"/>
			<point x="674" y="-1" type="curve"/>
			<point x="674" y="-1"/>
			<point x="493" y="318"/>
		</contour>
	</outline>
</glyph>
<glyph name="S" format="2">
	<advance width="693"/>
	<unicode hex="0053"/>
	<guideline x="-824"/>
	<outline>
		<contour>
			<point x="616" y="529" type="line"/>
			<point x="616" y="529"/>
			<point x="616" y="599"/>
			<point x="616" y="598" type="curve"/>
			<point x="616" y="708"/>
			<point x="539" y="758"/>
			<point x="435" y="756" type="curve" smooth="yes"/>
			<point x="275" y="752" type="line" smooth="yes"/>
			<point x="168" y="750"/>
			<point x="90" y="692"/>
			<point x="93" y="560" type="curve"/>
			<point x="93" y="560"/>
			<point x="93" y="519"/>
			<point x="93" y="473" type="curve" smooth="yes"/>
			<point x="93" y="432"/>
			<point x="124" y="403"/>
			<point x="168" y="389" type="curve" smooth="yes"/>
			<point x="168" y="389"/>
			<point x="437" y="291"/>
			<point x="463" y="283" type="curve" smooth="yes"/>
			<point x="480" y="277"/>
			<point x="495" y="270"/>
			<point x="495" y="248" type="curve"/>
			<point x="495" y="248"/>
			<point x="495" y="193"/>
			<point x="495" y="193" type="curve"/>
			<point x="495" y="136"/>
			<point x="486" y="117"/>
			<point x="426" y="117" type="curve"/>
			<point x="420" y="117"/>
			<point x="305" y="117"/>
			<point x="246" y="117" type="curve"/>
			<point x="224" y="117"/>
			<point x="210" y="122"/>
			<point x="210" y="156" type="curve"/>
			<point x="210" y="228" type="line"/>
			<point x="210" y="228"/>
			<point x="89" y="228"/>
			<point x="89" y="228" type="curve"/>
			<point x="91" y="142" type="line" smooth="yes"/>
			<point x="93" y="60"/>
			<point x="172" y="0"/>
			<point x="271" y="0" type="curve" smooth="yes"/>
			<point x="469" y="0" type="line" smooth="yes"/>
			<point x="574" y="0"/>
			<point x="611" y="61"/>
			<point x="615" y="156" type="curve" smooth="yes"/>
			<point x="619" y="262" type="line" smooth="yes"/>
			<point x="621" y="315"/>
			<point x="590" y="360"/>
			<point x="527" y="380" type="curve" smooth="yes"/>
			<point x="527" y="380"/>
			<point x="243" y="487"/>
			<point x="243" y="487" type="curve" smooth="yes"/>
			<point x="224" y="495"/>
			<point x="216" y="500"/>
			<point x="216" y="519" type="curve" smooth="yes"/>
			<point x="216" y="532"/>
			<point x="216" y="547"/>
			<point x="216" y="551" type="curve"/>
			<point x="216" y="620"/>
			<point x="242" y="638"/>
			<point x="309" y="638" type="curve" smooth="yes"/>
			<point x="341" y="638"/>
			<point x="418" y="638"/>
			<point x="450" y="638" type="curve" smooth="yes"/>
			<point x="488" y="638"/>
			<point x="496" y="623"/>
			<point x="496" y="581" type="curve"/>
			<point x="496" y="527" type="line"/>
		</contour>
	</outline>
</glyph>
<glyph name="bracketleft" format="2">
	<advance width="406"/>
	<unicode hex="005B"/>
	<outline>
		<contour>
			<point x="226" y="756" type="line"/>
			<point x="100" y="756" type="line"/>
			<point x="100" y="-147" type="line"/>
			<point x="226" y="-147" type="line"/>
		</contour>
		<contour>
			<point x="100" y="756" type="line"/>
			<point x="100" y="630" type="line"/>
			<point x="306" y="630" type="line"/>
			<point x="306" y="756" type="line"/>
		</contour>
		<contour>
			<point x="100" y="-21" type="line"/>
			<point x="100" y="-147" type="line"/>
			<point x="306" y="-147" type="line"/>
			<point x="306" y="-21" type="line"/>
		</contour>
	</outline>
</glyph>
<glyph name="a" format="2">
	<advance width="639"/>
	<unicode hex="0061"/>
	<outline>
		<contour>
			<point x="433" y="379" type="curve" smooth="yes"/>
			<point x="433" y="284" type="line"/>
			<point x="555" y="284" type="line"/>
			<point x="555" y="396" type="line" smooth="yes"/>
			<point x="555" y="500"/>
			<point x="499" y="563"/>
			<point x="395" y="563" type="curve" smooth="yes"/>
			<point x="95" y="563" type="line"/>
			<point x="95" y="439" type="line"/>
			<point x="373" y="439" type="line" smooth="yes"/>
			<point x="412" y="439"/>
			<point x="433" y="418"/>
		</contour>
		<contour>
			<point x="451" y="0" type="line"/>
			<point x="555" y="0" type="line"/>
			<point x="555" y="284" type="line"/>
			<point x="433" y="284" type="line"/>
			<point x="434" y="195" type="line"/>
			<point x="450" y="125" type="line"/>
		</contour>
		<contour>
			<point x="456" y="336" type="line"/>
			<point x="193" y="336" type="line" smooth="yes"/>
			<point x="109" y="336"/>
			<point x="63" y="290"/>
			<point x="63" y="206" type="curve" smooth="yes"/>
			<point x="63" y="156" type="line" smooth="yes"/>
			<point x="63" y="52"/>
			<point x="119" y="-4"/>
			<point x="223" y="-4" type="curve" smooth="yes"/>
			<point x="278" y="-4" type="line" smooth="yes"/>
			<point x="366" y="-4"/>
			<point x="415" y="44"/>
			<point x="433" y="113" type="curve"/>
			<point x="516" y="113" type="line"/>
			<point x="434" y="212" type="line"/>
			<point x="434" y="122"/>
			<point x="385" y="113"/>
			<point x="340" y="113" type="curve" smooth="yes"/>
			<point x="238" y="113" type="line" smooth="yes"/>
			<point x="199" y="113"/>
			<point x="178" y="134"/>
			<point x="178" y="171" type="curve" smooth="yes"/>
			<point x="178" y="208"/>
			<point x="199" y="229"/>
			<point x="238" y="229" type="curve" smooth="yes"/>
			<point x="456" y="229" type="line"/>
		</contour>
	</outline>
</glyph>
<glyph name="b" format="2">
	<advance width="683"/>
	<unicode hex="0062"/>
	<guideline x="-411" y="0" angle="0"/>
	<outline>
		<contour>
			<point x="405" y="120" type="curve" smooth="yes"/>
			<point x="183" y="120" type="line"/>
			<point x="183" y="1" type="line"/>
			<point x="413" y="0" type="line" smooth="yes"/>
			<point x="571" y="-1"/>
			<point x="607" y="79"/>
			<point x="607" y="245" type="curve" smooth="yes"/>
			<point x="607" y="371" type="line" smooth="yes"/>
			<point x="607" y="516"/>
			<point x="558" y="560"/>
			<point x="450" y="560" type="curve" smooth="yes"/>
			<point x="386" y="560" type="line" smooth="yes"/>
			<point x="301" y="560"/>
			<point x="240" y="521"/>
			<point x="226" y="429" type="curve"/>
			<point x="176" y="429" type="line"/>
			<point x="223" y="340" type="line"/>
			<point x="223" y="396"/>
			<point x="259" y="437"/>
			<point x="318" y="437" type="curve" smooth="yes"/>
			<point x="406" y="437" type="line" smooth="yes"/>
			<point x="468" y="437"/>
			<point x="484" y="413"/>
			<point x="484" y="354" type="curve" smooth="yes"/>
			<point x="484" y="196" type="line" smooth="yes"/>
			<point x="484" y="137"/>
			<point x="467" y="120"/>
		</contour>
		<contour>
			<point x="100" y="778" type="line"/>
			<point x="100" y="1" type="line"/>
			<point x="223" y="1" type="line"/>
			<point x="223" y="355" type="line"/>
			<point x="209" y="433" type="line"/>
			<point x="209" y="778" type="line"/>
		</contour>
	</outline>
</glyph>
<glyph name="d" format="2">
	<advance width="682"/>
	<unicode hex="0064"/>
	<guideline x="-28" y="0" angle="0"/>
	<guideline x="-23" y="450" angle="0"/>
	<outline>
		<contour>
			<point x="582" y="778" type="line"/>
			<point x="459" y="778" type="line"/>
			<point x="459" y="172" type="line"/>
			<point x="458" y="125" type="line"/>
			<point x="473" y="0" type="line"/>
			<point x="582" y="0" type="line"/>
		</contour>
		<contour>
			<point x="196" y="201" type="curve"/>
			<point x="196" y="354" type="line"/>
			<point x="196" y="410"/>
			<point x="229" y="436"/>
			<point x="288" y="436" type="curve" smooth="yes"/>
			<point x="459" y="436" type="line"/>
			<point x="493" y="557" type="line"/>
			<point x="257" y="556" type="line"/>
			<point x="137" y="556"/>
			<point x="74" y="480"/>
			<point x="74" y="343" type="curve"/>
			<point x="74" y="211" type="line"/>
			<point x="74" y="69"/>
			<point x="137" y="-7"/>
			<point x="242" y="-7" type="curve"/>
			<point x="318" y="-7" type="line"/>
			<point x="403" y="-7"/>
			<point x="432" y="48"/>
			<point x="440" y="110" type="curve"/>
			<point x="522" y="110" type="line"/>
			<point x="459" y="221" type="line"/>
			<point x="459" y="131"/>
			<point x="414" y="119"/>
			<point x="347" y="119" type="curve" smooth="yes"/>
			<point x="289" y="119" type="line" smooth="yes"/>
			<point x="230" y="119"/>
			<point x="196" y="145"/>
		</contour>
	</outline>
</glyph>
<glyph name="g" format="2">
	<advance width="634"/>
	<unicode hex="0067"/>
	<outline>
		<contour>
			<point x="303" y="183" type="curve"/>
			<point x="303" y="157" type="line"/>
			<point x="395" y="157" type="line" smooth="yes"/>
			<point x="509" y="157"/>
			<point x="571" y="215"/>
			<point x="571" y="337" type="curve" smooth="yes"/>
			<point x="571" y="629" type="line"/>
			<point x="462" y="629" type="line"/>
			<point x="462" y="402" type="line"/>
			<point x="487" y="487" type="line"/>
			<point x="446" y="487" type="line"/>
			<point x="446" y="545"/>
			<point x="403" y="566"/>
			<point x="333" y="566" type="curve" smooth="yes"/>
			<point x="246" y="566" type="line" smooth="yes"/>
			<point x="117" y="566"/>
			<point x="68" y="517"/>
			<point x="68" y="388" type="curve" smooth="yes"/>
			<point x="68" y="350" type="line" smooth="yes"/>
			<point x="68" y="226"/>
			<point x="133" y="183"/>
		</contour>
		<contour>
			<point x="194" y="-21" type="curve" smooth="yes"/>
			<point x="435" y="-21" type="line" smooth="yes"/>
			<point x="461" y="-21"/>
			<point x="475" y="-34"/>
			<point x="475" y="-65" type="curve" smooth="yes"/>
			<point x="475" y="-93"/>
			<point x="461" y="-106"/>
			<point x="435" y="-106" type="curve" smooth="yes"/>
			<point x="99" y="-106" type="line"/>
			<point x="99" y="-212" type="line"/>
			<point x="465" y="-212" type="line" smooth="yes"/>
			<point x="541" y="-212"/>
			<point x="574" y="-179"/>
			<point x="574" y="-101" type="curve" smooth="yes"/>
			<point x="574" y="-20" type="line" smooth="yes"/>
			<point x="574" y="50"/>
			<point x="541" y="80"/>
			<point x="465" y="80" type="curve" smooth="yes"/>
			<point x="250" y="81" type="line" smooth="yes"/>
			<point x="222" y="81"/>
			<point x="210" y="92"/>
			<point x="210" y="117" type="curve" smooth="yes"/>
			<point x="210" y="140"/>
			<point x="222" y="157"/>
			<point x="249" y="157" type="curve" smooth="yes"/>
			<point x="331" y="157" type="line"/>
			<point x="323" y="209" type="line"/>
			<point x="226" y="209" type="line"/>
			<point x="226" y="177" type="line"/>
			<point x="194" y="177" type="line"/>
			<point x="124" y="177"/>
			<point x="92" y="130"/>
			<point x="92" y="70" type="curve" smooth="yes"/>
			<point x="92" y="8"/>
			<point x="124" y="-21"/>
		</contour>
		<contour>
			<point x="192" y="336" type="curve" smooth="yes"/>
			<point x="192" y="394" type="line" smooth="yes"/>
			<point x="192" y="433"/>
			<point x="212" y="454"/>
			<point x="251" y="454" type="curve" smooth="yes"/>
			<point x="381" y="454" type="line" smooth="yes"/>
			<point x="420" y="454"/>
			<point x="441" y="433"/>
			<point x="441" y="394" type="curve" smooth="yes"/>
			<point x="441" y="336" type="line" smooth="yes"/>
			<point x="441" y="297"/>
			<point x="420" y="276"/>
			<point x="381" y="276" type="curve" smooth="yes"/>
			<point x="251" y="276" type="line" smooth="yes"/>
			<point x="212" y="276"/>
			<point x="192" y="297"/>
		</contour>
	</outline>
</glyph>
<glyph name="h" format="2">
	<advance width="688"/>
	<unicode hex="0068"/>
	<outline>
		<contour>
			<point x="100" y="778" type="line"/>
			<point x="100" y="0" type="line"/>
			<point x="226" y="0" type="line"/>
			<point x="226" y="362" type="line"/>
			<point x="210" y="432" type="line"/>
			<point x="209" y="778" type="line"/>
		</contour>
		<contour>
			<point x="381" y="436" type="curve" smooth="yes"/>
			<point x="451" y="436"/>
			<point x="485" y="402"/>
			<point x="485" y="323" type="curve" smooth="yes"/>
			<point x="485" y="0" type="line"/>
			<point x="608" y="0" type="line"/>
			<point x="608" y="380" type="line" smooth="yes"/>
			<point x="608" y="498"/>
			<point x="550" y="559"/>
			<point x="429" y="559" type="curve" smooth="yes"/>
			<point x="387" y="559" type="line" smooth="yes"/>
			<point x="286" y="559"/>
			<point x="250" y="507"/>
			<point x="230" y="432" type="curve"/>
			<point x="210" y="432" type="line"/>
			<point x="226" y="333" type="line"/>
			<point x="226" y="423"/>
			<point x="297" y="436"/>
		</contour>
	</outline>
</glyph>
<glyph name="j" format="2">
	<advance width="331"/>
	<unicode hex="006A"/>
	<outline>
		<contour>
			<point x="110" y="778" type="line"/>
			<point x="110" y="652" type="line"/>
			<point x="238" y="652" type="line"/>
			<point x="238" y="778" type="line"/>
		</contour>
		<contour>
			<point x="238" y="-53" type="curve" smooth="yes"/>
			<point x="238" y="556" type="line"/>
			<point x="112" y="556" type="line"/>
			<point x="112" y="-29" type="line" smooth="yes"/>
			<point x="112" y="-68"/>
			<point x="91" y="-89"/>
			<point x="52" y="-89" type="curve" smooth="yes"/>
			<point x="-40" y="-89" type="line"/>
			<point x="-40" y="-213" type="line"/>
			<point x="78" y="-213" type="line" smooth="yes"/>
			<point x="181" y="-213"/>
			<point x="238" y="-157"/>
		</contour>
	</outline>
</glyph>
<glyph name="k" format="2">
	<advance width="635"/>
	<unicode hex="006B"/>
	<outline>
		<contour>
			<point x="90" y="0" type="line"/>
			<point x="213" y="0" type="line"/>
			<point x="213" y="240" type="line"/>
			<point x="302" y="240" type="line"/>
			<point x="472" y="0" type="line"/>
			<point x="615" y="0" type="line"/>
			<point x="365" y="350" type="line"/>
			<point x="364" y="279" type="line"/>
			<point x="586" y="556" type="line"/>
			<point x="451" y="556" type="line"/>
			<point x="293" y="364" type="line"/>
			<point x="213" y="364" type="line"/>
			<point x="213" y="778" type="line"/>
			<point x="90" y="778" type="line"/>
		</contour>
	</outline>
</glyph>
<glyph name="l" format="2">
	<advance width="326"/>
	<unicode hex="006C"/>
	<outline>
		<contour>
			<point x="100" y="778" type="line"/>
			<point x="100" y="0" type="line"/>
			<point x="226" y="0" type="line"/>
			<point x="226" y="778" type="line"/>
		</contour>
	</outline>
</glyph>
<glyph name="o" format="2">
	<advance width="688"/>
	<unicode hex="006F"/>
	<anchor x="344" y="278" name="center"/>
	<anchor x="603" y="-1" name="ogonek"/>
	<anchor x="363" y="568" name="top"/>
	<anchor x="629" y="556" name="topright"/>
	<anchor x="350" y="-13" name="bottom"/>
	<outline>
		<contour>
			<point x="500" y="331" type="curve" smooth="yes"/>
			<point x="500" y="231" type="line" smooth="yes"/>
			<point x="500" y="160"/>
			<point x="451" y="119"/>
			<point x="375" y="119" type="curve" smooth="yes"/>
			<point x="323" y="119" type="line" smooth="yes"/>
			<point x="239" y="119"/>
			<point x="188" y="160"/>
			<point x="188" y="231" type="curve" smooth="yes"/>
			<point x="188" y="331" type="line" smooth="yes"/>
			<point x="188" y="402"/>
			<point x="239" y="443"/>
			<point x="323" y="443" type="curve" smooth="yes"/>
			<point x="375" y="443" type="line" smooth="yes"/>
			<point x="451" y="443"/>
			<point x="500" y="402"/>
		</contour>
		<contour>
			<point x="68" y="326" type="curve" smooth="yes"/>
			<point x="68" y="236" type="line"/>
			<point x="68" y="88"/>
			<point x="149" y="-4"/>
			<point x="284" y="-4" type="curve" smooth="yes"/>
			<point x="404" y="-4" type="line"/>
			<point x="539" y="-4"/>
			<point x="620" y="88"/>
			<point x="620" y="236" type="curve" smooth="yes"/>
			<point x="620" y="326" type="line" smooth="yes"/>
			<point x="620" y="474"/>
			<point x="539" y="566"/>
			<point x="404" y="566" type="curve" smooth="yes"/>
			<point x="284" y="566" type="line"/>
			<point x="149" y="566"/>
			<point x="68" y="474"/>
		</contour>
	</outline>
</glyph>
<glyph name="p" format="2">
	<advance width="668"/>
	<unicode hex="0070"/>
	<guideline x="-9" y="0" angle="0"/>
	<outline>
		<contour>
			<point x="86" y="556" type="line"/>
			<point x="86" y="-211" type="line"/>
			<point x="211" y="-211" type="line"/>
			<point x="211" y="119" type="line"/>
			<point x="211" y="357" type="line"/>
			<point x="197" y="432" type="line"/>
			<point x="195" y="556" type="line"/>
		</contour>
		<contour>
			<point x="377" y="121" type="curve" smooth="yes"/>
			<point x="174" y="121" type="line"/>
			<point x="174" y="0" type="line"/>
			<point x="376" y="0" type="line" smooth="yes"/>
			<point x="506" y="0"/>
			<point x="590" y="90"/>
			<point x="590" y="238" type="curve" smooth="yes"/>
			<point x="590" y="380" type="line" smooth="yes"/>
			<point x="590" y="498"/>
			<point x="532" y="559"/>
			<point x="411" y="559" type="curve" smooth="yes"/>
			<point x="369" y="559" type="line" smooth="yes"/>
			<point x="254" y="559"/>
			<point x="226" y="487"/>
			<point x="212" y="432" type="curve"/>
			<point x="197" y="432" type="line"/>
			<point x="211" y="333" type="line"/>
			<point x="211" y="416"/>
			<point x="251" y="432"/>
			<point x="320" y="432" type="curve" smooth="yes"/>
			<point x="320" y="432"/>
			<point x="376" y="432"/>
			<point x="376" y="432" type="curve" smooth="yes"/>
			<point x="440" y="432"/>
			<point x="467" y="403"/>
			<point x="467" y="341" type="curve" smooth="yes"/>
			<point x="467" y="211" type="line" smooth="yes"/>
			<point x="467" y="149"/>
			<point x="440" y="121"/>
		</contour>
	</outline>
</glyph>
<glyph name="q" format="2">
	<advance width="671"/>
	<unicode hex="0071"/>
	<guideline x="-48" y="0" angle="0"/>
	<guideline x="-7" y="354" angle="0"/>
	<outline>
		<contour>
			<point x="578" y="556" type="line"/>
			<point x="453" y="556" type="line"/>
			<point x="453" y="186" type="line"/>
			<point x="466" y="129" type="line"/>
			<point x="466" y="-211" type="line"/>
			<point x="578" y="-211" type="line"/>
		</contour>
		<contour>
			<point x="197" y="354" type="curve" smooth="yes"/>
			<point x="197" y="414"/>
			<point x="228" y="439"/>
			<point x="288" y="439" type="curve"/>
			<point x="460" y="439" type="line"/>
			<point x="491" y="556" type="line"/>
			<point x="491" y="556"/>
			<point x="400" y="556"/>
			<point x="263" y="556" type="curve" smooth="yes"/>
			<point x="126" y="556"/>
			<point x="74" y="481"/>
			<point x="74" y="374" type="curve" smooth="yes"/>
			<point x="74" y="175" type="line" smooth="yes"/>
			<point x="74" y="50"/>
			<point x="143" y="-6"/>
			<point x="253" y="-4" type="curve"/>
			<point x="295" y="-4" type="line"/>
			<point x="393" y="-4"/>
			<point x="429" y="48"/>
			<point x="449" y="123" type="curve"/>
			<point x="480" y="123" type="line"/>
			<point x="453" y="222" type="line"/>
			<point x="453" y="132"/>
			<point x="411" y="120"/>
			<point x="335" y="120" type="curve" smooth="yes"/>
			<point x="288" y="120" type="line" smooth="yes"/>
			<point x="228" y="120"/>
			<point x="197" y="139"/>
			<point x="197" y="200" type="curve" smooth="yes"/>
			<point x="197" y="221"/>
			<point x="197" y="353"/>
		</contour>
	</outline>
</glyph>
<glyph name="u" format="2">
	<advance width="659"/>
	<unicode hex="0075"/>
	<outline>
		<contour>
			<point x="579" y="0" type="line"/>
			<point x="579" y="559" type="line"/>
			<point x="454" y="559" type="line"/>
			<point x="454" y="197" type="line"/>
			<point x="470" y="127" type="line"/>
			<point x="475" y="0" type="line"/>
		</contour>
		<contour>
			<point x="213" y="238" type="curve"/>
			<point x="213" y="559" type="line"/>
			<point x="90" y="559" type="line"/>
			<point x="90" y="179" type="line" smooth="yes"/>
			<point x="90" y="65"/>
			<point x="145" y="0"/>
			<point x="247" y="0" type="curve" smooth="yes"/>
			<point x="296" y="0" type="line" smooth="yes"/>
			<point x="397" y="0"/>
			<point x="433" y="52"/>
			<point x="453" y="127" type="curve"/>
			<point x="470" y="127" type="line"/>
			<point x="454" y="238" type="line"/>
			<point x="454" y="157"/>
			<point x="401" y="127"/>
			<point x="322" y="127" type="curve" smooth="yes"/>
			<point x="246" y="127"/>
			<point x="213" y="157"/>
		</contour>
	</outline>
</glyph>
<glyph name="braceleft" format="2">
	<advance width="395"/>
	<unicode hex="007B"/>
	<guideline x="380" y="219" angle="90"/>
	<guideline x="655" y="277" angle="180.295"/>
	<outline>
		<contour>
			<point x="345" y="632" type="line"/>
			<point x="345" y="755" type="line"/>
			<point x="280" y="755" type="line" smooth="yes"/>
			<point x="172" y="755"/>
			<point x="124" y="711"/>
			<point x="123" y="566" type="curve" smooth="yes"/>
			<point x="122" y="374" type="line"/>
			<point x="50" y="359" type="line"/>
			<point x="50" y="246" type="line"/>
			<point x="122" y="231" type="line"/>
			<point x="122" y="44" type="line" smooth="yes"/>
			<point x="122" y="-100"/>
			<point x="171" y="-145"/>
			<point x="279" y="-145" type="curve" smooth="yes"/>
			<point x="344" y="-145" type="line"/>
			<point x="344" y="-22" type="line"/>
			<point x="245" y="-22" type="line"/>
			<point x="246" y="210" type="line" smooth="yes"/>
			<point x="246" y="233"/>
			<point x="226" y="285"/>
			<point x="180" y="285" type="curve" smooth="yes"/>
			<point x="152" y="285" type="line"/>
			<point x="152" y="320" type="line"/>
			<point x="180" y="320" type="line" smooth="yes"/>
			<point x="226" y="320"/>
			<point x="246" y="356"/>
			<point x="246" y="394" type="curve" smooth="yes"/>
			<point x="247" y="632" type="line"/>
		</contour>
	</outline>
</glyph>
<glyph name="braceright" format="2">
	<advance width="395"/>
	<unicode hex="007D"/>
	<guideline x="367" y="190" angle="90"/>
	<guideline x="402" y="275" angle="0"/>
	<outline>
		<contour>
			<point x="50" y="632" type="line"/>
			<point x="148" y="632" type="line"/>
			<point x="149" y="394" type="line" smooth="yes"/>
			<point x="149" y="356"/>
			<point x="169" y="320"/>
			<point x="215" y="320" type="curve" smooth="yes"/>
			<point x="243" y="320" type="line"/>
			<point x="243" y="285" type="line"/>
			<point x="215" y="285" type="line" smooth="yes"/>
			<point x="169" y="285"/>
			<point x="149" y="233"/>
			<point x="149" y="210" type="curve" smooth="yes"/>
			<point x="150" y="-22" type="line"/>
			<point x="51" y="-22" type="line"/>
			<point x="51" y="-145" type="line"/>
			<point x="116" y="-145" type="line" smooth="yes"/>
			<point x="224" y="-145"/>
			<point x="273" y="-100"/>
			<point x="273" y="44" type="curve" smooth="yes"/>
			<point x="273" y="231" type="line"/>
			<point x="345" y="246" type="line"/>
			<point x="345" y="359" type="line"/>
			<point x="273" y="374" type="line"/>
			<point x="272" y="566" type="line" smooth="yes"/>
			<point x="271" y="711"/>
			<point x="223" y="755"/>
			<point x="115" y="755" type="curve" smooth="yes"/>
			<point x="50" y="755" type="line"/>
		</contour>
	</outline>
</glyph>
<glyph name="exclamdown" format="2">
	<advance width="500"/>
	<unicode hex="00A1"/>
	<guideline x="-191" y="-164" angle="0"/>
	<guideline x="-125" y="429" angle="0"/>
	<outline>
		<contour>
			<point x="189" y="530" type="line"/>
			<point x="189" y="401" type="line"/>
			<point x="318" y="401" type="line"/>
			<point x="318" y="530" type="line"/>
		</contour>
		<contour>
			<point x="177" y="-166" type="line"/>
			<point x="331" y="-166" type="line"/>
			<point x="317" y="314" type="line"/>
			<point x="191" y="314" type="line"/>
		</contour>
	</outline>
</glyph>
<glyph name="questiondown" format="2">
	<advance width="578"/>
	<unicode hex="00BF"/>
	<guideline x="586" y="-175" angle="0"/>
	<outline>
		<contour>
			<point x="321" y="72" type="line" smooth="yes"/>
			<point x="391" y="72"/>
			<point x="427" y="101"/>
			<point x="427" y="168" type="curve" smooth="yes"/>
			<point x="427" y="200"/>
			<point x="427" y="302"/>
			<point x="427" y="325" type="curve"/>
			<point x="305" y="325" type="line"/>
			<point x="305" y="285"/>
			<point x="305" y="258"/>
			<point x="305" y="233" type="curve" smooth="yes"/>
			<point x="305" y="208"/>
			<point x="293" y="197"/>
			<point x="265" y="197" type="curve" smooth="yes"/>
			<point x="159" y="196" type="line" smooth="yes"/>
			<point x="83" y="195"/>
			<point x="50" y="156"/>
			<point x="50" y="86" type="curve" smooth="yes"/>
			<point x="50" y="-66" type="line" smooth="yes"/>
			<point x="50" y="-142"/>
			<point x="83" y="-175"/>
			<point x="159" y="-175" type="curve" smooth="yes"/>
			<point x="528" y="-175" type="line"/>
			<point x="528" y="-50" type="line"/>
			<point x="214" y="-50" type="line" smooth="yes"/>
			<point x="187" y="-50"/>
			<point x="175" y="-32"/>
			<point x="175" y="-12" type="curve" smooth="yes"/>
			<point x="175" y="8"/>
			<point x="175" y="21"/>
			<point x="175" y="34" type="curve" smooth="yes"/>
			<point x="175" y="59"/>
			<point x="187" y="72"/>
			<point x="214" y="72" type="curve" smooth="yes"/>
		</contour>
		<contour>
			<point x="429" y="529" type="line"/>
			<point x="300" y="529" type="line"/>
			<point x="300" y="400" type="line"/>
			<point x="429" y="400" type="line"/>
		</contour>
	</outline>
</glyph>
<glyph name="endash" format="2">
	<advance width="590"/>
	<unicode hex="2013"/>
	<outline>
		<contour>
			<point x="50" y="191" type="line"/>
			<point x="540" y="191" type="line"/>
			<point x="540" y="320" type="line"/>
			<point x="50" y="320" type="line"/>
		</contour>
	</outline>
</glyph>
<glyph name="quoteright" format="2">
	<advance width="256"/>
	<unicode hex="2019"/>
	<outline>
		<contour>
			<point x="159" y="452" type="line"/>
			<point x="206" y="700" type="line"/>
			<point x="86" y="700" type="line"/>
			<point x="50" y="451" type="line"/>
		</contour>
	</outline>
</glyph>
<glyph name="quotedblleft" format="2">
	<advance width="456"/>
	<unicode hex="201C"/>
	<outline>
		<contour>
			<point x="94" y="699" type="line"/>
			<point x="50" y="451" type="line"/>
			<point x="170" y="451" type="line"/>
			<point x="206" y="700" type="line"/>
		</contour>
		<contour>
			<point x="294" y="699" type="line"/>
			<point x="250" y="451" type="line"/>
			<point x="370" y="451" type="line"/>
			<point x="406" y="700" type="line"/>
		</contour>
	</outline>
</glyph>
<glyph name="quotedblright" format="2">
	<advance width="456"/>
	<unicode hex="201D"/>
	<outline>
		<contour>
			<point x="362" y="452" type="line"/>
			<point x="406" y="700" type="line"/>
			<point x="286" y="700" type="line"/>
			<point x="250" y="451" type="line"/>
		</contour>
		<contour>
			<point x="162" y="452" type="line"/>
			<point x="206" y="700" type="line"/>
			<point x="86" y="700" type="line"/>
			<point x="50" y="451" type="line"/>
		</contour>
	</outline>
</glyph>
<glyph name="bullet" format="2">
	<advance width="422"/>
	<unicode hex="2022"/>
	<outline>
		<contour>
			<point x="100" y="158" type="line"/>
			<point x="322" y="158" type="line"/>
			<point x="322" y="380" type="line"/>
			<point x="100" y="380" type="line"/>
		</contour>
	</outline>
</glyph>
<glyph name="F.001" format="2">
	<advance width="666"/>
	<outline>
		<contour>
			<point x="253" y="756" type="line"/>
			<point x="123" y="756" type="line"/>
			<point x="123" y="0" type="line"/>
			<point x="253" y="0" type="line"/>
		</contour>
		<contour>
			<point x="635" y="629" type="line"/>
			<point x="635" y="756" type="line"/>
			<point x="253" y="756" type="line"/>
			<point x="253" y="629" type="line"/>
		</contour>
		<contour>
			<point x="253" y="449" type="curve"/>
			<point x="253" y="269" type="line"/>
			<point x="560" y="269" type="line"/>
			<point x="560" y="396" type="line"/>
			<point x="314" y="396" type="line" smooth="yes"/>
			<point x="274" y="396"/>
			<point x="253" y="415"/>
		</contour>
	</outline>
</glyph>
<glyph name="S.ss01" format="2">
	<advance width="693"/>
	<outline>
		<contour>
			<point x="672" y="529" type="line"/>
			<point x="672" y="529"/>
			<point x="671" y="599"/>
			<point x="671" y="598" type="curve"/>
			<point x="671" y="708"/>
			<point x="607" y="756"/>
			<point x="497" y="756" type="curve" smooth="yes"/>
			<point x="296" y="756" type="line" smooth="yes"/>
			<point x="183" y="756"/>
			<point x="106" y="696"/>
			<point x="109" y="556" type="curve"/>
			<point x="109" y="458" type="line"/>
			<point x="109" y="402"/>
			<point x="154" y="320"/>
			<point x="240" y="320" type="curve" smooth="yes"/>
			<point x="555" y="320" type="line"/>
			<point x="555" y="194" type="line"/>
			<point x="554" y="137"/>
			<point x="517" y="124"/>
			<point x="451" y="124" type="curve" smooth="yes"/>
			<point x="395" y="124"/>
			<point x="237" y="124"/>
			<point x="239" y="125" type="curve"/>
			<point x="239" y="228" type="line"/>
			<point x="239" y="228"/>
			<point x="107" y="228"/>
			<point x="107" y="228" type="curve"/>
			<point x="107" y="165" type="line" smooth="yes"/>
			<point x="107" y="62"/>
			<point x="177" y="0"/>
			<point x="301" y="0" type="curve" smooth="yes"/>
			<point x="492" y="0" type="line" smooth="yes"/>
			<point x="630" y="0"/>
			<point x="684" y="84"/>
			<point x="685" y="220" type="curve" smooth="yes"/>
			<point x="686" y="321" type="line" smooth="yes"/>
			<point x="687" y="375"/>
			<point x="640" y="438"/>
			<point x="581" y="438" type="curve" smooth="yes"/>
			<point x="224" y="438" type="line"/>
			<point x="224" y="445"/>
			<point x="224" y="537"/>
			<point x="224" y="544" type="curve" smooth="yes"/>
			<point x="229" y="612"/>
			<point x="249" y="635"/>
			<point x="330" y="635" type="curve" smooth="yes"/>
			<point x="549" y="635" type="line"/>
			<point x="549" y="527" type="line"/>
		</contour>
	</outline>
</glyph>
<glyph name="advertencia" format="2">
	<advance width="947"/>
	<outline>
		<contour>
			<point x="522" y="259" type="line"/>
			<point x="522" y="505" type="line"/>
			<point x="426" y="505" type="line"/>
			<point x="426" y="259" type="line"/>
		</contour>
		<contour>
			<point x="84" y="94" type="line"/>
			<point x="84" y="0" type="line"/>
			<point x="862" y="0" type="line"/>
			<point x="862" y="94" type="line"/>
			<point x="518" y="756" type="line"/>
			<point x="423" y="756" type="line"/>
		</contour>
		<contour>
			<point x="191" y="54" type="line"/>
			<point x="489" y="694" type="line"/>
			<point x="447" y="694" type="line"/>
			<point x="769" y="55" type="line"/>
			<point x="792" y="94" type="line"/>
			<point x="166" y="94" type="line"/>
		</contour>
		<contour>
			<point x="426" y="133" type="line"/>
			<point x="522" y="133" type="line"/>
			<point x="522" y="229" type="line"/>
			<point x="426" y="229" type="line"/>
		</contour>
	</outline>
</glyph>
<glyph name="banca" format="2">
	<advance width="980"/>
	<outline>
		<contour>
			<point x="30" y="360" type="line"/>
			<point x="30" y="240" type="line"/>
			<point x="950" y="240" type="line"/>
			<point x="950" y="360" type="line"/>
		</contour>
		<contour>
			<point x="134" y="537" type="line"/>
			<point x="134" y="417" type="line"/>
			<point x="824" y="417" type="line"/>
			<point x="824" y="537" type="line"/>
		</contour>
		<contour>
			<point x="134" y="714" type="line"/>
			<point x="134" y="594" type="line"/>
			<point x="824" y="594" type="line"/>
			<point x="824" y="714" type="line"/>
		</contour>
		<contour>
			<point x="200" y="240" type="line"/>
			<point x="80" y="240" type="line"/>
			<point x="80" y="0" type="line"/>
			<point x="200" y="0" type="line"/>
		</contour>
		<contour>
			<point x="900" y="240" type="line"/>
			<point x="780" y="240" type="line"/>
			<point x="780" y="0" type="line"/>
			<point x="900" y="0" type="line"/>
		</contour>
		<contour>
			<point x="304" y="756" type="line"/>
			<point x="184" y="756" type="line"/>
			<point x="184" y="636" type="line"/>
			<point x="304" y="636" type="line"/>
		</contour>
		<contour>
			<point x="774" y="753" type="line"/>
			<point x="654" y="753" type="line"/>
			<point x="654" y="633" type="line"/>
			<point x="774" y="633" type="line"/>
		</contour>
	</outline>
</glyph>
<glyph name="basura" format="2">
	<advance width="687"/>
	<outline>
		<contour>
			<point x="84" y="556" type="line"/>
			<point x="84" y="85" type="line" smooth="yes"/>
			<point x="84" y="30"/>
			<point x="114" y="0"/>
			<point x="169" y="0" type="curve" smooth="yes"/>
			<point x="518" y="0" type="line" smooth="yes"/>
			<point x="573" y="0"/>
			<point x="603" y="30"/>
			<point x="603" y="85" type="curve" smooth="yes"/>
			<point x="603" y="556" type="line"/>
			<point x="477" y="556" type="line"/>
			<point x="477" y="120" type="line"/>
			<point x="210" y="120" type="line"/>
			<point x="210" y="556" type="line"/>
		</contour>
		<contour>
			<point x="657" y="580" type="line"/>
			<point x="30" y="580" type="line"/>
			<point x="30" y="476" type="line"/>
			<point x="657" y="476" type="line"/>
		</contour>
		<contour>
			<point x="573" y="520" type="line"/>
			<point x="573" y="671" type="line" smooth="yes"/>
			<point x="573" y="726"/>
			<point x="543" y="756"/>
			<point x="488" y="756" type="curve" smooth="yes"/>
			<point x="199" y="756" type="line" smooth="yes"/>
			<point x="144" y="756"/>
			<point x="114" y="726"/>
			<point x="114" y="671" type="curve" smooth="yes"/>
			<point x="114" y="520" type="line"/>
			<point x="240" y="520" type="line"/>
			<point x="240" y="652" type="line"/>
			<point x="447" y="652" type="line"/>
			<point x="447" y="520" type="line"/>
		</contour>
		<contour>
			<point x="266" y="439" type="line"/>
			<point x="266" y="160" type="line"/>
			<point x="323" y="160" type="line"/>
			<point x="323" y="439" type="line"/>
		</contour>
		<contour>
			<point x="370" y="439" type="line"/>
			<point x="370" y="160" type="line"/>
			<point x="427" y="160" type="line"/>
			<point x="427" y="439" type="line"/>
		</contour>
	</outline>
</glyph>
<glyph name="disc" format="2">
	<advance width="763"/>
	<outline>
		<contour>
			<point x="737" y="160" type="line"/>
			<point x="655" y="160" type="line"/>
			<point x="595" y="340" type="line"/>
			<point x="399" y="339" type="line" smooth="yes"/>
			<point x="369" y="339"/>
			<point x="353" y="355"/>
			<point x="353" y="385" type="curve" smooth="yes"/>
			<point x="353" y="583" type="line"/>
			<point x="233" y="583" type="line"/>
			<point x="233" y="350" type="line" smooth="yes"/>
			<point x="233" y="275"/>
			<point x="275" y="233"/>
			<point x="350" y="234" type="curve" smooth="yes"/>
			<point x="515" y="236" type="line"/>
			<point x="575" y="56" type="line"/>
			<point x="737" y="56" type="line"/>
		</contour>
		<contour>
			<point x="269" y="413" type="line"/>
			<point x="455" y="413" type="line"/>
			<point x="455" y="517" type="line"/>
			<point x="269" y="517" type="line"/>
		</contour>
		<contour>
			<point x="232" y="756" type="line"/>
			<point x="232" y="630" type="line"/>
			<point x="358" y="630" type="line"/>
			<point x="358" y="756" type="line"/>
		</contour>
		<contour>
			<point x="316" y="441" type="move"/>
		</contour>
		<contour>
			<point x="515" y="72" type="curve"/>
			<point x="472" y="185" type="line"/>
			<point x="440" y="147"/>
			<point x="379" y="110"/>
			<point x="316" y="110" type="curve"/>
			<point x="216" y="110"/>
			<point x="150" y="176"/>
			<point x="150" y="276" type="curve"/>
			<point x="150" y="317"/>
			<point x="161" y="350"/>
			<point x="183" y="378" type="curve"/>
			<point x="183" y="529" type="line"/>
			<point x="96" y="484"/>
			<point x="30" y="388"/>
			<point x="30" y="276" type="curve"/>
			<point x="30" y="118"/>
			<point x="158" y="-10"/>
			<point x="316" y="-10" type="curve"/>
			<point x="394" y="-10"/>
			<point x="464" y="22"/>
		</contour>
	</outline>
</glyph>
<glyph name="flechaizq" format="2">
	<advance width="816"/>
	<outline>
		<contour>
			<point x="385" y="776" type="line"/>
			<point x="30" y="443" type="line"/>
			<point x="30" y="313" type="line"/>
			<point x="385" y="-20" type="line"/>
			<point x="469" y="65" type="line"/>
			<point x="106" y="378" type="line"/>
			<point x="196" y="273" type="line"/>
			<point x="196" y="348" type="line"/>
			<point x="72" y="313" type="line"/>
			<point x="786" y="313" type="line"/>
			<point x="786" y="443" type="line"/>
			<point x="72" y="443" type="line"/>
			<point x="196" y="414" type="line"/>
			<point x="196" y="477" type="line"/>
			<point x="106" y="378" type="line"/>
			<point x="469" y="691" type="line"/>
		</contour>
	</outline>
</glyph>
<glyph name="jardin" format="2">
	<advance width="1027"/>
	<outline>
		<contour>
			<point x="687" y="276" type="curve" smooth="yes"/>
			<point x="823" y="276" type="line" smooth="yes"/>
			<point x="942" y="276"/>
			<point x="997" y="339"/>
			<point x="997" y="456" type="curve" smooth="yes"/>
			<point x="997" y="581" type="line" smooth="yes"/>
			<point x="997" y="710"/>
			<point x="960" y="762"/>
			<point x="824" y="762" type="curve" smooth="yes"/>
			<point x="687" y="762" type="line" smooth="yes"/>
			<point x="578" y="762"/>
			<point x="513" y="689"/>
			<point x="513" y="582" type="curve" smooth="yes"/>
			<point x="513" y="456" type="line" smooth="yes"/>
			<point x="513" y="329"/>
			<point x="548" y="276"/>
		</contour>
		<contour>
			<point x="196" y="113" type="line"/>
			<point x="322" y="113" type="line"/>
			<point x="322" y="393" type="line"/>
			<point x="196" y="393" type="line"/>
		</contour>
		<contour>
			<point x="35" y="-1" type="line"/>
			<point x="997" y="-1" type="line"/>
			<point x="997" y="125" type="line"/>
			<point x="35" y="125" type="line"/>
		</contour>
		<contour>
			<point x="145" y="276" type="line"/>
			<point x="373" y="276" type="line"/>
			<point x="373" y="393" type="line"/>
			<point x="145" y="393" type="line"/>
		</contour>
		<contour>
			<point x="110" y="276" type="curve" smooth="yes"/>
			<point x="146" y="276" type="line"/>
			<point x="256" y="689" type="line"/>
			<point x="206" y="646" type="line"/>
			<point x="318" y="646" type="line"/>
			<point x="254" y="689" type="line"/>
			<point x="371" y="276" type="line"/>
			<point x="414" y="276" type="line" smooth="yes"/>
			<point x="474" y="276"/>
			<point x="507" y="313"/>
			<point x="488" y="370" type="curve" smooth="yes"/>
			<point x="362" y="756" type="line"/>
			<point x="157" y="756" type="line"/>
			<point x="35" y="370" type="line" smooth="yes"/>
			<point x="17" y="312"/>
			<point x="50" y="276"/>
		</contour>
		<contour>
			<point x="692" y="73" type="line"/>
			<point x="818" y="73" type="line"/>
			<point x="818" y="308" type="line"/>
			<point x="692" y="308" type="line"/>
		</contour>
		<contour>
			<point x="725" y="383" type="line" smooth="yes"/>
			<point x="651" y="383"/>
			<point x="629" y="395"/>
			<point x="629" y="464" type="curve" smooth="yes"/>
			<point x="629" y="574" type="line" smooth="yes"/>
			<point x="629" y="643"/>
			<point x="651" y="655"/>
			<point x="725" y="655" type="curve" smooth="yes"/>
			<point x="785" y="655" type="line" smooth="yes"/>
			<point x="859" y="655"/>
			<point x="881" y="643"/>
			<point x="881" y="574" type="curve" smooth="yes"/>
			<point x="881" y="464" type="line" smooth="yes"/>
			<point x="881" y="395"/>
			<point x="859" y="383"/>
			<point x="785" y="383" type="curve" smooth="yes"/>
		</contour>
	</outline>
</glyph>
<glyph name="perro" format="2">
	<advance width="935"/>
	<outline>
		<contour>
			<point x="119" y="0" type="line"/>
			<point x="244" y="0" type="line"/>
			<point x="244" y="169" type="line"/>
			<point x="220" y="86" type="line"/>
			<point x="321" y="244" type="line"/>
			<point x="150" y="219" type="line"/>
			<point x="119" y="132" type="line"/>
		</contour>
		<contour>
			<point x="328" y="0" type="line"/>
			<point x="443" y="0" type="line"/>
			<point x="342" y="201" type="line"/>
			<point x="271" y="124" type="line"/>
		</contour>
		<contour>
			<point x="522" y="0" type="line"/>
			<point x="642" y="0" type="line"/>
			<point x="642" y="362" type="line"/>
			<point x="568" y="471" type="line"/>
			<point x="150" y="471" type="line"/>
			<point x="150" y="219" type="line"/>
			<point x="567" y="219" type="line"/>
			<point x="522" y="264" type="line"/>
		</contour>
		<contour>
			<point x="605" y="496" type="line"/>
			<point x="684" y="387" type="line"/>
			<point x="761" y="439" type="line"/>
			<point x="691" y="444" type="line"/>
			<point x="831" y="316" type="line"/>
			<point x="905" y="396" type="line"/>
			<point x="773" y="587" type="line"/>
			<point x="764" y="522" type="line"/>
			<point x="853" y="594" type="line"/>
			<point x="800" y="658" type="line"/>
		</contour>
		<contour>
			<point x="222" y="453" type="move"/>
		</contour>
		<contour>
			<point x="30" y="514" type="line"/>
			<point x="192" y="353" type="line"/>
			<point x="252" y="414" type="line"/>
			<point x="90" y="575" type="line"/>
		</contour>
	</outline>
</glyph>
<glyph name="zero.001" format="2">
	<advance width="794"/>
	<outline>
		<contour>
			<point x="442" y="127" type="curve" smooth="yes"/>
			<point x="236" y="127" type="line"/>
			<point x="236" y="508" type="line" smooth="yes"/>
			<point x="236" y="607"/>
			<point x="278" y="629"/>
			<point x="352" y="629" type="curve" smooth="yes"/>
			<point x="558" y="629" type="line"/>
			<point x="558" y="248" type="line" smooth="yes"/>
			<point x="558" y="149"/>
			<point x="516" y="127"/>
		</contour>
		<contour>
			<point x="694" y="230" type="curve" smooth="yes"/>
			<point x="694" y="525" type="line"/>
			<point x="694" y="679"/>
			<point x="647" y="756"/>
			<point x="491" y="756" type="curve" smooth="yes"/>
			<point x="304" y="756" type="line" smooth="yes"/>
			<point x="175" y="756"/>
			<point x="100" y="663"/>
			<point x="100" y="526" type="curve" smooth="yes"/>
			<point x="100" y="230" type="line" smooth="yes"/>
			<point x="100" y="76"/>
			<point x="148" y="0"/>
			<point x="304" y="0" type="curve" smooth="yes"/>
			<point x="490" y="0" type="line" smooth="yes"/>
			<point x="629" y="0"/>
			<point x="694" y="83"/>
		</contour>
	</outline>
</glyph>
